Coordinates
version=1
nRows=17
nColumns=40
inDegrees=yes

Units are S.I. units (second, meters, Newtons, ...)
If the header above contains a line with 'inDegrees', this indicates whether rotational values are in degrees (yes) or radians (no).

endheader
time	pelvis_tilt	pelvis_list	pelvis_rotation	pelvis_tx	pelvis_ty	pelvis_tz	hip_flexion_r	hip_adduction_r	hip_rotation_r	knee_angle_r	knee_angle_r_beta	ankle_angle_r	subtalar_angle_r	mtp_angle_r	hip_flexion_l	hip_adduction_l	hip_rotation_l	knee_angle_l	knee_angle_l_beta	ankle_angle_l	subtalar_angle_l	mtp_angle_l	lumbar_extension	lumbar_bending	lumbar_rotation	arm_flex_r	arm_add_r	arm_rot_r	elbow_flex_r	pro_sup_r	wrist_flex_r	wrist_dev_r	arm_flex_l	arm_add_l	arm_rot_l	elbow_flex_l	pro_sup_l	wrist_flex_l	wrist_dev_l
      3.15000000	      7.94446103	      1.40102542	      1.10075385	     -0.40985305	      0.77414863	     -0.76136653	     45.50985908	      5.25393918	     -0.92258015	     89.88306616	      1.56875545	     31.09756378	      0.00000000	      0.00000000	     62.32790638	      3.06984936	      2.33945680	     15.79515530	      0.27567747	     -5.06978252	      0.00000000	      0.00000000	    -46.29576914	     -0.73694897	     -0.19917027	     89.90750574	    -12.06875516	     14.30945515	     52.79333963	     87.28103612	      0.00000000	      0.00000000	     89.90391588	     -6.50881056	     15.04505022	     48.17068093	     85.74927516	      0.00000000	      0.00000000
      3.15500000	      7.92640789	      1.38120286	      1.06004517	     -0.40969578	      0.77376114	     -0.76122529	     45.56093464	      5.28573345	     -0.93853466	     89.94629700	      1.56985903	     31.12545612	      0.00000000	      0.00000000	     62.36194222	      2.99019209	      2.28283418	     15.85062310	      0.27664556	     -5.06036408	      0.00000000	      0.00000000	    -46.29497190	     -0.75172304	     -0.14178588	     89.90734245	    -12.09509056	     14.32532062	     52.83362286	     87.15355279	      0.00000000	      0.00000000	     89.90446399	     -6.47046661	     14.96732285	     48.14387169	     86.14170611	      0.00000000	      0.00000000
      3.16000000	      7.91696171	      1.32480088	      1.05922537	     -0.40952742	      0.77344672	     -0.76114860	     45.58766966	      5.31774603	     -1.01053877	     89.98768420	      1.57058138	     31.07587965	      0.00000000	      0.00000000	     62.37376364	      2.92894144	      2.37736822	     15.86800161	      0.27694887	     -5.07927695	      0.00000000	      0.00000000	    -46.30341948	     -0.68955917	     -0.15966217	     89.90746996	    -11.97255011	     14.26793883	     52.78316502	     87.28077316	      0.00000000	      0.00000000	     89.90485076	     -6.59767780	     15.13156536	     48.21946636	     85.61647145	      0.00000000	      0.00000000
      3.16500000	      7.93735980	      1.32617445	      1.04732903	     -0.40932838	      0.77320657	     -0.76111527	     45.57544174	      5.29098962	     -1.04281623	     90.04456653	      1.57157416	     31.14982912	      0.00000000	      0.00000000	     62.32909479	      2.89557653	      2.34939878	     15.85007769	      0.27663604	     -5.05587616	      0.00000000	      0.00000000	    -46.34361691	     -0.69765149	     -0.12570971	     89.90788775	    -12.04270261	     14.33218651	     52.86771889	     87.15417679	      0.00000000	      0.00000000	     89.90464804	     -6.52644882	     15.02590757	     48.18227405	     86.15769522	      0.00000000	      0.00000000
      3.17000000	      7.89085708	      1.23044440	      1.08943565	     -0.40921023	      0.77281202	     -0.76104221	     45.65218385	      5.31807901	     -1.18808945	     90.08045535	      1.57220054	     31.08910986	      0.00000000	      0.00000000	     62.35627008	      2.85470932	      2.55136346	     15.80646438	      0.27587485	     -5.04692647	      0.00000000	      0.00000000	    -46.31443277	     -0.58419319	     -0.10483028	     89.90775577	    -11.96791801	     14.22832969	     52.81436567	     87.30078435	      0.00000000	      0.00000000	     89.90475467	     -6.65506910	     15.29020977	     48.26378232	     85.46834627	      0.00000000	      0.00000000
      3.17500000	      7.91452686	      1.23773968	      1.03441407	     -0.40901935	      0.77257566	     -0.76092091	     45.64271137	      5.31986408	     -1.18492964	     90.14913039	      1.57339914	     31.16199985	      0.00000000	      0.00000000	     62.33312289	      2.77702088	      2.43230531	     15.83197446	      0.27632008	     -5.07453724	      0.00000000	      0.00000000	    -46.35495458	     -0.62421404	     -0.05194972	     89.90771702	    -11.94904551	     14.18273204	     52.78678897	     87.24350365	      0.00000000	      0.00000000	     89.90486012	     -6.51731478	     15.04349193	     48.17584201	     85.93496783	      0.00000000	      0.00000000
      3.18000000	      7.91610801	      1.23992272	      1.00008130	     -0.40885932	      0.77234006	     -0.76081712	     45.65858205	      5.32638412	     -1.17407846	     90.20713404	      1.57441150	     31.15511179	      0.00000000	      0.00000000	     62.31293045	      2.71833913	      2.38745328	     15.81360794	      0.27599953	     -5.07265473	      0.00000000	      0.00000000	    -46.38640773	     -0.64985503	     -0.01121268	     89.90787181	    -12.01027273	     14.27503126	     52.84451929	     87.09077723	      0.00000000	      0.00000000	     89.90469520	     -6.50695133	     15.02995614	     48.18630682	     86.24227300	      0.00000000	      0.00000000
      3.18500000	      7.89930987	      1.21219273	      0.98070554	     -0.40865684	      0.77207066	     -0.76073115	     45.68536413	      5.33775202	     -1.21377145	     90.24926352	      1.57514680	     31.17635188	      0.00000000	      0.00000000	     62.32017066	      2.66012614	      2.36253212	     15.80892074	      0.27591772	     -5.04586102	      0.00000000	      0.00000000	    -46.39374728	     -0.62705205	     -0.02882843	     89.90792531	    -11.92571523	     14.24407397	     52.84957146	     87.12133143	      0.00000000	      0.00000000	     89.90518494	     -6.56891214	     15.00576792	     48.26838251	     86.19060126	      0.00000000	      0.00000000
      3.19000000	      7.89643466	      1.13897660	      0.97897387	     -0.40852870	      0.77179540	     -0.76056830	     45.71643675	      5.40081040	     -1.27839766	     90.30005065	      1.57603320	     31.14945918	      0.00000000	      0.00000000	     62.30652480	      2.59018457	      2.46631477	     15.76525057	      0.27515553	     -5.02906533	      0.00000000	      0.00000000	    -46.40654384	     -0.57326011	      0.00147149	     89.90756403	    -11.85075413	     14.19371351	     52.79682011	     87.10373675	      0.00000000	      0.00000000	     89.90550459	     -6.60210706	     15.09927188	     48.24411191	     85.80375131	      0.00000000	      0.00000000
      3.19500000	      7.88295647	      1.14395771	      0.95336487	     -0.40834940	      0.77159281	     -0.76049224	     45.72667566	      5.36242614	     -1.32656155	     90.32068512	      1.57639334	     31.13415960	      0.00000000	      0.00000000	     62.30754736	      2.54436808	      2.40070643	     15.77682922	      0.27535762	     -4.99741014	      0.00000000	      0.00000000	    -46.41472895	     -0.57982582	      0.00352828	     89.90787891	    -11.82758946	     14.18024875	     52.80003157	     87.23493607	      0.00000000	      0.00000000	     89.90537263	     -6.61841592	     15.08043266	     48.25788689	     85.98612436	      0.00000000	      0.00000000
      3.20000000	      7.88890839	      1.11768027	      0.96094943	     -0.40817899	      0.77139046	     -0.76050219	     45.73075421	      5.34273942	     -1.38724317	     90.37066755	      1.57726570	     31.16756146	      0.00000000	      0.00000000	     62.27836647	      2.51565501	      2.41400579	     15.73386095	      0.27460768	     -4.97809194	      0.00000000	      0.00000000	    -46.44215822	     -0.55265013	      0.05480861	     89.90785755	    -11.91271248	     14.26678570	     52.84811377	     87.13712164	      0.00000000	      0.00000000	     89.90566894	     -6.55888916	     15.01933526	     48.24728397	     86.21082546	      0.00000000	      0.00000000
      3.20500000	      7.86380865	      1.10114857	      0.98042406	     -0.40801943	      0.77114393	     -0.76050669	     45.76989206	      5.30790630	     -1.44077102	     90.41515876	      1.57804221	     31.18003751	      0.00000000	      0.00000000	     62.29697206	      2.49843826	      2.36190639	     15.72126078	      0.27438776	     -4.99581255	      0.00000000	      0.00000000	    -46.43109936	     -0.50879472	     -0.00308060	     89.90796711	    -11.78497139	     14.19123921	     52.77356805	     87.15806500	      0.00000000	      0.00000000	     89.90585124	     -6.67720407	     15.16379306	     48.31461025	     86.14155360	      0.00000000	      0.00000000
      3.21000000	      7.86720842	      1.08865571	      0.98999609	     -0.40788499	      0.77096080	     -0.76050215	     45.77476130	      5.27287553	     -1.50033618	     90.46440891	      1.57890179	     31.16918689	      0.00000000	      0.00000000	     62.27176052	      2.48195288	      2.33819375	     15.68386549	      0.27373509	     -4.99936796	      0.00000000	      0.00000000	    -46.45878432	     -0.48841589	      0.00883642	     89.90786179	    -11.78520986	     14.14477094	     52.76932935	     87.30118344	      0.00000000	      0.00000000	     89.90606082	     -6.58463461	     15.00649526	     48.28199470	     85.79807956	      0.00000000	      0.00000000
      3.21500000	      7.83632451	      1.06719895	      1.00336443	     -0.40774753	      0.77074969	     -0.76044111	     45.82267184	      5.26604271	     -1.53244345	     90.50265906	      1.57956938	     31.10940856	      0.00000000	      0.00000000	     62.24523246	      2.46178311	      2.39607307	     15.56124651	      0.27159499	     -5.04674085	      0.00000000	      0.00000000	    -46.44747357	     -0.43832226	     -0.11470686	     89.90833580	    -11.56831805	     14.08013077	     52.71375118	     87.38509086	      0.00000000	      0.00000000	     89.90582542	     -7.02721949	     15.64274263	     48.59270633	     85.17978756	      0.00000000	      0.00000000
      3.22000000	      7.82613492	      0.99979662	      1.02825500	     -0.40761625	      0.77052936	     -0.76044829	     45.83611778	      5.27520062	     -1.63797548	     90.52001339	      1.57987227	     31.16145466	      0.00000000	      0.00000000	     62.30372275	      2.41852965	      2.30869210	     15.65526162	      0.27323586	     -4.98985184	      0.00000000	      0.00000000	    -46.45155926	     -0.38556057	      0.02978250	     89.90807608	    -11.78295639	     14.26580260	     52.77612870	     87.10689669	      0.00000000	      0.00000000	     89.90627665	     -6.65099502	     15.05725153	     48.31715287	     86.25279845	      0.00000000	      0.00000000
      3.22500000	      7.82263351	      0.96537011	      1.02640576	     -0.40748960	      0.77039754	     -0.76039132	     45.84163655	      5.28873569	     -1.67632791	     90.54623335	      1.58032990	     31.18910256	      0.00000000	      0.00000000	     62.27931332	      2.37702731	      2.34513304	     15.60335294	      0.27232988	     -4.97880391	      0.00000000	      0.00000000	    -46.46814361	     -0.35374688	      0.04864793	     89.90807301	    -11.76388035	     14.29078074	     52.74719914	     87.06697334	      0.00000000	      0.00000000	     89.90647254	     -6.64309196	     15.01132976	     48.32200491	     86.31016612	      0.00000000	      0.00000000
      3.23000000	      7.78943574	      0.92052924	      1.00737840	     -0.40734659	      0.77018203	     -0.76024830	     45.88954614	      5.33343299	     -1.71088145	     90.56609379	      1.58067653	     31.17921304	      0.00000000	      0.00000000	     62.31297631	      2.31145834	      2.28858147	     15.60264715	      0.27231756	     -4.95219870	      0.00000000	      0.00000000	    -46.45340504	     -0.33459077	      0.08665340	     89.90858685	    -11.73584649	     14.24435344	     52.74123341	     87.18157675	      0.00000000	      0.00000000	     89.90607594	     -6.60246063	     14.97349915	     48.31798749	     86.01909303	      0.00000000	      0.00000000
